<svg width="727" height="125" viewBox="0 0 727 125" fill="none" xmlns="http://www.w3.org/2000/svg">
<path d="M22.6364 97H2.18182L25.2273 27.1818H51.1364L74.1818 97H53.7273L38.4545 46.4091H37.9091L22.6364 97ZM18.8182 69.4545H57.2727V83.6364H18.8182V69.4545ZM111.989 27.1818V97H93.0341V44.6364H92.625L77.3523 53.7727V37.6818L94.5341 27.1818H111.989ZM160.551 27.1818V97H141.597V44.6364H141.188L125.915 53.7727V37.6818L143.097 27.1818H160.551ZM171.886 27.1818H193.023L206.659 55.5455H207.205L220.841 27.1818H241.977L216.341 75.0455V97H197.523V75.0455L171.886 27.1818ZM419.668 49C419.486 46.7273 418.634 44.9545 417.111 43.6818C415.611 42.4091 413.327 41.7727 410.259 41.7727C408.304 41.7727 406.702 42.0114 405.452 42.4886C404.224 42.9432 403.315 43.5682 402.724 44.3636C402.134 45.1591 401.827 46.0682 401.804 47.0909C401.759 47.9318 401.906 48.6932 402.247 49.375C402.611 50.0341 403.179 50.6364 403.952 51.1818C404.724 51.7045 405.713 52.1818 406.918 52.6136C408.122 53.0455 409.554 53.4318 411.213 53.7727L416.94 55C420.804 55.8182 424.111 56.8977 426.861 58.2386C429.611 59.5795 431.861 61.1591 433.611 62.9773C435.361 64.7727 436.645 66.7955 437.463 69.0455C438.304 71.2955 438.736 73.75 438.759 76.4091C438.736 81 437.588 84.8864 435.315 88.0682C433.043 91.25 429.793 93.6705 425.565 95.3295C421.361 96.9886 416.304 97.8182 410.395 97.8182C404.327 97.8182 399.031 96.9205 394.509 95.125C390.009 93.3295 386.509 90.5682 384.009 86.8409C381.531 83.0909 380.281 78.2955 380.259 72.4545H398.259C398.372 74.5909 398.906 76.3864 399.861 77.8409C400.815 79.2955 402.156 80.3977 403.884 81.1477C405.634 81.8977 407.713 82.2727 410.122 82.2727C412.145 82.2727 413.838 82.0227 415.202 81.5227C416.565 81.0227 417.599 80.3295 418.304 79.4432C419.009 78.5568 419.372 77.5455 419.395 76.4091C419.372 75.3409 419.02 74.4091 418.338 73.6136C417.679 72.7955 416.588 72.0682 415.065 71.4318C413.543 70.7727 411.486 70.1591 408.895 69.5909L401.94 68.0909C395.759 66.75 390.884 64.5114 387.315 61.375C383.77 58.2159 382.009 53.9091 382.031 48.4545C382.009 44.0227 383.19 40.1477 385.577 36.8295C387.986 33.4886 391.315 30.8864 395.565 29.0227C399.838 27.1591 404.736 26.2273 410.259 26.2273C415.895 26.2273 420.77 27.1705 424.884 29.0568C428.997 30.9432 432.168 33.6023 434.395 37.0341C436.645 40.4432 437.781 44.4318 437.804 49H419.668ZM511.151 53.3636H491.923C491.787 51.7727 491.423 50.3295 490.832 49.0341C490.264 47.7386 489.469 46.625 488.446 45.6932C487.446 44.7386 486.23 44.0114 484.798 43.5114C483.366 42.9886 481.741 42.7273 479.923 42.7273C476.741 42.7273 474.048 43.5 471.844 45.0455C469.662 46.5909 468.003 48.8068 466.866 51.6932C465.753 54.5795 465.196 58.0455 465.196 62.0909C465.196 66.3636 465.764 69.9432 466.901 72.8295C468.06 75.6932 469.73 77.8523 471.912 79.3068C474.094 80.7386 476.719 81.4545 479.787 81.4545C481.537 81.4545 483.105 81.2386 484.491 80.8068C485.878 80.3523 487.082 79.7045 488.105 78.8636C489.128 78.0227 489.957 77.0114 490.594 75.8295C491.253 74.625 491.696 73.2727 491.923 71.7727L511.151 71.9091C510.923 74.8636 510.094 77.875 508.662 80.9432C507.23 83.9886 505.196 86.8068 502.56 89.3977C499.946 91.9659 496.707 94.0341 492.844 95.6023C488.98 97.1705 484.491 97.9545 479.378 97.9545C472.969 97.9545 467.219 96.5795 462.128 93.8295C457.06 91.0795 453.048 87.0341 450.094 81.6932C447.162 76.3523 445.696 69.8182 445.696 62.0909C445.696 54.3182 447.196 47.7727 450.196 42.4545C453.196 37.1136 457.241 33.0795 462.332 30.3523C467.423 27.6023 473.105 26.2273 479.378 26.2273C483.787 26.2273 487.844 26.8295 491.548 28.0341C495.253 29.2386 498.503 31 501.298 33.3182C504.094 35.6136 506.344 38.4432 508.048 41.8068C509.753 45.1705 510.787 49.0227 511.151 53.3636ZM587.386 62.0909C587.386 69.8636 585.875 76.4205 582.852 81.7614C579.83 87.0795 575.75 91.1136 570.614 93.8636C565.477 96.5909 559.75 97.9545 553.432 97.9545C547.068 97.9545 541.318 96.5795 536.182 93.8295C531.068 91.0568 527 87.0114 523.977 81.6932C520.977 76.3523 519.477 69.8182 519.477 62.0909C519.477 54.3182 520.977 47.7727 523.977 42.4545C527 37.1136 531.068 33.0795 536.182 30.3523C541.318 27.6023 547.068 26.2273 553.432 26.2273C559.75 26.2273 565.477 27.6023 570.614 30.3523C575.75 33.0795 579.83 37.1136 582.852 42.4545C585.875 47.7727 587.386 54.3182 587.386 62.0909ZM567.886 62.0909C567.886 57.9091 567.33 54.3864 566.216 51.5227C565.125 48.6364 563.5 46.4545 561.341 44.9773C559.205 43.4773 556.568 42.7273 553.432 42.7273C550.295 42.7273 547.648 43.4773 545.489 44.9773C543.352 46.4545 541.727 48.6364 540.614 51.5227C539.523 54.3864 538.977 57.9091 538.977 62.0909C538.977 66.2727 539.523 69.8068 540.614 72.6932C541.727 75.5568 543.352 77.7386 545.489 79.2386C547.648 80.7159 550.295 81.4545 553.432 81.4545C556.568 81.4545 559.205 80.7159 561.341 79.2386C563.5 77.7386 565.125 75.5568 566.216 72.6932C567.33 69.8068 567.886 66.2727 567.886 62.0909ZM637.474 27.1818H656.429V71.9091C656.429 77.2273 655.156 81.8295 652.611 85.7159C650.088 89.5795 646.565 92.5682 642.043 94.6818C637.52 96.7727 632.27 97.8182 626.293 97.8182C620.27 97.8182 614.997 96.7727 610.474 94.6818C605.952 92.5682 602.429 89.5795 599.906 85.7159C597.406 81.8295 596.156 77.2273 596.156 71.9091V27.1818H615.111V70.2727C615.111 72.4318 615.588 74.3636 616.543 76.0682C617.497 77.75 618.815 79.0682 620.497 80.0227C622.202 80.9773 624.134 81.4545 626.293 81.4545C628.474 81.4545 630.406 80.9773 632.088 80.0227C633.77 79.0682 635.088 77.75 636.043 76.0682C636.997 74.3636 637.474 72.4318 637.474 70.2727V27.1818ZM663.528 42.4545V27.1818H724.21V42.4545H703.21V97H684.528V42.4545H663.528Z" fill="#242424"/>
<circle cx="310.5" cy="62.5" r="62" stroke="#242424"/>
<circle cx="310" cy="62" r="6" fill="#242424"/>
</svg>
