<svg width="250" height="44" viewBox="0 0 250 44" fill="none" xmlns="http://www.w3.org/2000/svg">
<path d="M106.581 23.5448C107.728 23.5448 108.659 22.6147 108.659 21.4673C108.659 20.3199 107.728 19.3898 106.581 19.3898C105.434 19.3898 104.504 20.3199 104.504 21.4673C104.504 22.6147 105.434 23.5448 106.581 23.5448Z" fill="#242424"/>
<path fill-rule="evenodd" clip-rule="evenodd" d="M106.754 43.2808C118.706 43.2808 128.395 33.5921 128.395 21.6404C128.395 9.68875 118.706 0 106.754 0C94.8025 0 85.1138 9.68875 85.1138 21.6404C85.1138 33.5921 94.8025 43.2808 106.754 43.2808ZM106.754 42.9346C118.515 42.9346 128.048 33.4009 128.048 21.6404C128.048 9.87997 118.515 0.346247 106.754 0.346247C94.9937 0.346247 85.46 9.87997 85.46 21.6404C85.46 33.4009 94.9937 42.9346 106.754 42.9346Z" fill="#242424"/>
<path fill-rule="evenodd" clip-rule="evenodd" d="M7.08232 33.5859H0L7.97941 9.41162H16.9504L24.9298 33.5859H17.8474L16.4506 28.9588H8.47919L7.08232 33.5859ZM12.5593 16.069L14.9682 24.0484H9.96157L12.3705 16.069H12.5593Z" fill="#242424"/>
<path d="M38.0203 9.41162V33.5859H31.4573V15.4552H31.3157L26.0275 18.6186V13.0472L31.9767 9.41162H38.0203Z" fill="#242424"/>
<path d="M54.8349 9.41162V33.5859H48.2719V15.4552H48.1303L42.8421 18.6186V13.0472L48.7913 9.41162H54.8349Z" fill="#242424"/>
<path d="M58.7597 9.41162H66.0781L70.7996 19.2324H70.9885L75.71 9.41162H83.0284L74.1519 25.9842V33.5859H67.6362V25.9842L58.7597 9.41162Z" fill="#242424"/>
<path d="M144.553 16.9661C144.49 16.1792 144.195 15.5654 143.668 15.1247C143.148 14.684 142.358 14.4637 141.295 14.4637C140.618 14.4637 140.064 14.5463 139.631 14.7116C139.206 14.8689 138.891 15.0853 138.687 15.3608C138.482 15.6362 138.376 15.951 138.368 16.3051C138.352 16.5962 138.403 16.8599 138.521 17.0959C138.647 17.3241 138.844 17.5327 139.112 17.7215C139.379 17.9025 139.721 18.0678 140.138 18.2173C140.556 18.3668 141.051 18.5006 141.626 18.6186L143.609 19.0436C144.947 19.3269 146.092 19.7007 147.044 20.1649C147.996 20.6292 148.775 21.1761 149.381 21.8057C149.987 22.4273 150.431 23.1277 150.715 23.9068C151.006 24.6858 151.155 25.5357 151.163 26.4564C151.155 28.046 150.758 29.3916 149.971 30.4933C149.184 31.595 148.059 32.4331 146.595 33.0075C145.139 33.582 143.388 33.8692 141.342 33.8692C139.241 33.8692 137.408 33.5584 135.842 32.9367C134.284 32.3151 133.072 31.3589 132.206 30.0684C131.349 28.77 130.916 27.1095 130.908 25.0872H137.14C137.18 25.8269 137.365 26.4485 137.695 26.9522C138.026 27.4558 138.49 27.8375 139.088 28.0971C139.694 28.3568 140.414 28.4867 141.248 28.4867C141.948 28.4867 142.535 28.4001 143.007 28.227C143.479 28.0539 143.837 27.8138 144.081 27.5069C144.325 27.2 144.451 26.8499 144.459 26.4564C144.451 26.0865 144.329 25.7639 144.093 25.4885C143.865 25.2052 143.487 24.9534 142.96 24.733C142.432 24.5048 141.72 24.2924 140.823 24.0956L138.415 23.5763C136.275 23.112 134.587 22.3369 133.351 21.2509C132.124 20.1571 131.514 18.6658 131.522 16.7772C131.514 15.2427 131.923 13.901 132.749 12.7521C133.583 11.5953 134.736 10.6943 136.208 10.049C137.687 9.40375 139.383 9.08111 141.295 9.08111C143.247 9.08111 144.935 9.40768 146.359 10.0608C147.783 10.714 148.881 11.6347 149.652 12.8229C150.431 14.0033 150.825 15.3844 150.833 16.9661H144.553Z" fill="#242424"/>
<path d="M176.229 18.477H169.571C169.524 17.9261 169.398 17.4264 169.194 16.9779C168.997 16.5293 168.722 16.1438 168.367 15.8211C168.021 15.4906 167.6 15.2388 167.104 15.0657C166.609 14.8847 166.046 14.7942 165.416 14.7942C164.315 14.7942 163.382 15.0617 162.619 15.5968C161.863 16.132 161.289 16.8992 160.896 17.8986C160.51 18.898 160.317 20.0981 160.317 21.4988C160.317 22.9782 160.514 24.2176 160.907 25.217C161.309 26.2085 161.887 26.9561 162.643 27.4597C163.398 27.9555 164.307 28.2034 165.369 28.2034C165.975 28.2034 166.518 28.1286 166.998 27.9791C167.478 27.8217 167.895 27.5974 168.249 27.3063C168.603 27.0151 168.891 26.6649 169.111 26.2557C169.339 25.8387 169.493 25.3704 169.571 24.8511L176.229 24.8983C176.15 25.9213 175.863 26.964 175.367 28.0263C174.871 29.0808 174.167 30.0566 173.254 30.9537C172.349 31.8429 171.228 32.559 169.89 33.102C168.552 33.645 166.998 33.9164 165.228 33.9164C163.008 33.9164 161.018 33.4404 159.255 32.4882C157.5 31.536 156.111 30.1353 155.088 28.286C154.073 26.4367 153.565 24.1743 153.565 21.4988C153.565 18.8075 154.085 16.5412 155.123 14.6997C156.162 12.8505 157.563 11.4537 159.326 10.5094C161.088 9.5572 163.056 9.08111 165.228 9.08111C166.754 9.08111 168.159 9.28964 169.442 9.70671C170.724 10.1238 171.85 10.7336 172.817 11.5363C173.785 12.3311 174.564 13.3108 175.155 14.4755C175.745 15.6401 176.103 16.974 176.229 18.477Z" fill="#242424"/>
<path fill-rule="evenodd" clip-rule="evenodd" d="M202.625 21.4988C202.625 24.1901 202.102 26.4603 201.055 28.3096C200.009 30.151 198.596 31.5478 196.818 32.5C195.039 33.4443 193.056 33.9164 190.869 33.9164C188.665 33.9164 186.674 33.4404 184.896 32.4882C183.125 31.5281 181.717 30.1274 180.67 28.286C179.631 26.4367 179.112 24.1743 179.112 21.4988C179.112 18.8075 179.631 16.5412 180.67 14.6997C181.717 12.8505 183.125 11.4537 184.896 10.5094C186.674 9.5572 188.665 9.08111 190.869 9.08111C193.056 9.08111 195.039 9.5572 196.818 10.5094C198.596 11.4537 200.009 12.8505 201.055 14.6997C202.102 16.5412 202.625 18.8075 202.625 21.4988ZM195.873 21.4988C195.873 20.0508 195.681 18.8311 195.295 17.8396C194.917 16.8402 194.355 16.0847 193.607 15.5732C192.867 15.0539 191.954 14.7942 190.869 14.7942C189.783 14.7942 188.866 15.0539 188.118 15.5732C187.379 16.0847 186.816 16.8402 186.43 17.8396C186.053 18.8311 185.864 20.0508 185.864 21.4988C185.864 22.9467 186.053 24.1704 186.43 25.1698C186.816 26.1613 187.379 26.9168 188.118 27.4361C188.866 27.9476 189.783 28.2034 190.869 28.2034C191.954 28.2034 192.867 27.9476 193.607 27.4361C194.355 26.9168 194.917 26.1613 195.295 25.1698C195.681 24.1704 195.873 22.9467 195.873 21.4988Z" fill="#242424"/>
<path d="M219.968 9.41162H226.531V24.8983C226.531 26.7397 226.09 28.3332 225.209 29.6789C224.335 31.0166 223.116 32.0514 221.55 32.7833C219.984 33.5072 218.166 33.8692 216.096 33.8692C214.011 33.8692 212.185 33.5072 210.619 32.7833C209.053 32.0514 207.834 31.0166 206.96 29.6789C206.095 28.3332 205.662 26.7397 205.662 24.8983V9.41162H212.225V24.3317C212.225 25.0793 212.39 25.7482 212.72 26.3384C213.051 26.9207 213.507 27.3771 214.09 27.7076C214.68 28.0381 215.349 28.2034 216.096 28.2034C216.852 28.2034 217.521 28.0381 218.103 27.7076C218.685 27.3771 219.142 26.9207 219.472 26.3384C219.803 25.7482 219.968 25.0793 219.968 24.3317V9.41162Z" fill="#242424"/>
<path d="M228.989 14.6997V9.41162H250V14.6997H242.729V33.5859H236.26V14.6997H228.989Z" fill="#242424"/>
</svg>
